<svg width="48" height="48" viewBox="0 0 48 48" fill="none" xmlns="http://www.w3.org/2000/svg">
  <rect width="48" height="48" rx="24" fill="#FEF3C7" />
  <path d="M24 34C29.5228 34 34 29.5228 34 24C34 18.4772 29.5228 14 24 14C18.4772 14 14 18.4772 14 24C14 25.5 14.2 26.5 14.8 28L14 34L20 33.2C21.5 33.8 22.5 34 24 34Z" stroke="#B45309" stroke-width="2" stroke-linecap="round" stroke-linejoin="round" />
  <path d="M24 28V28.01" stroke="#B45309" stroke-width="2" stroke-linecap="round" stroke-linejoin="round" />
  <path d="M24 24C23.8333 23.5 23.3 22.5 22.5 22.5C21.7 22.5 21 23 21 24C21 25 22 25.5 24 25.5" stroke="#B45309" stroke-width="2" stroke-linecap="round" stroke-linejoin="round" />
</svg>
